<?xml version="1.0" encoding="UTF-8" standalone="no"?><!DOCTYPE svg PUBLIC "-//W3C//DTD SVG 1.1//EN" "http://www.w3.org/Graphics/SVG/1.1/DTD/svg11.dtd"><svg width="100%" height="100%" viewBox="0 0 398 398" version="1.1" xmlns="http://www.w3.org/2000/svg" xmlns:xlink="http://www.w3.org/1999/xlink" xml:space="preserve" xmlns:serif="http://www.serif.com/" style="fill-rule:evenodd;clip-rule:evenodd;stroke-linejoin:round;stroke-miterlimit:2;"><g><circle cx="198.737" cy="198.737" r="198.737" style="fill:#0f0f0f;"/><g><path d="M93.934,285.979l63.374,-63.373c23.003,-23.003 60.354,-23.003 83.357,0l62.377,62.378c-5.833,-3.566 -12.687,-5.621 -20.019,-5.621c-9.641,-0 -18.458,3.555 -25.211,9.424l-41.664,-41.664c-9.472,-9.472 -24.852,-9.472 -34.324,0l-41.41,41.41c-6.714,-5.718 -15.415,-9.17 -24.916,-9.17c-7.989,-0 -15.412,2.44 -21.564,6.616Z" style="fill:#d4f53c;"/><path d="M303.54,111.495l-63.373,63.373c-23.003,23.003 -60.354,23.003 -83.357,0l-62.378,-62.377c5.833,3.565 12.688,5.621 20.019,5.621c9.641,-0 18.458,-3.555 25.211,-9.425l41.665,41.664c9.471,9.472 24.851,9.472 34.323,0l41.41,-41.41c6.714,5.718 15.416,9.171 24.917,9.171c7.988,-0 15.411,-2.441 21.563,-6.617Z" style="fill:#d4f53c;"/></g></g></svg>