<?xml version="1.0" encoding="UTF-8" standalone="no"?><!DOCTYPE svg PUBLIC "-//W3C//DTD SVG 1.1//EN" "http://www.w3.org/Graphics/SVG/1.1/DTD/svg11.dtd"><svg width="100%" height="100%" viewBox="0 0 1231 398" version="1.1" xmlns="http://www.w3.org/2000/svg" xmlns:xlink="http://www.w3.org/1999/xlink" xml:space="preserve" xmlns:serif="http://www.serif.com/" style="fill-rule:evenodd;clip-rule:evenodd;stroke-linejoin:round;stroke-miterlimit:2;"><g><path d="M198.737,0c109.686,0 198.738,89.051 198.738,198.737c-0,109.686 -89.052,198.738 -198.738,198.738c-109.686,-0 -198.737,-89.052 -198.737,-198.738c-0,-109.686 89.051,-198.737 198.737,-198.737Zm-104.803,285.979c6.152,-4.176 13.575,-6.616 21.564,-6.616c9.501,-0 18.202,3.452 24.916,9.17l41.41,-41.41c9.472,-9.472 24.852,-9.472 34.324,0l41.664,41.664c6.753,-5.869 15.57,-9.424 25.211,-9.424c7.332,-0 14.186,2.055 20.019,5.621l-62.377,-62.378c-23.003,-23.003 -60.354,-23.003 -83.357,0l-63.374,63.373Zm209.606,-174.484c-6.152,4.176 -13.575,6.617 -21.563,6.617c-9.501,-0 -18.203,-3.453 -24.917,-9.171l-41.41,41.41c-9.472,9.472 -24.852,9.472 -34.323,0l-41.665,-41.664c-6.753,5.87 -15.57,9.425 -25.211,9.425c-7.331,-0 -14.186,-2.056 -20.019,-5.621l62.378,62.377c23.003,23.003 60.354,23.003 83.357,0l63.373,-63.373Z" style="fill:#d4f53c;"/><g><path d="M502.508,301.4l-0,-201.135l83.107,-0c1.956,-0 4.47,0.07 7.543,0.21c3.073,0.139 5.913,0.442 8.52,0.907c11.64,1.77 21.255,5.634 28.844,11.594c7.589,5.959 13.222,13.478 16.901,22.557c3.678,9.079 5.517,19.159 5.517,30.24c-0,10.988 -1.863,21.022 -5.587,30.101c-3.725,9.079 -9.382,16.598 -16.971,22.558c-7.589,5.959 -17.157,9.824 -28.704,11.593c-2.607,0.372 -5.47,0.652 -8.59,0.838c-3.119,0.186 -5.61,0.279 -7.473,0.279l-49.445,0l-0,70.258l-33.662,-0Zm33.662,-101.685l48.049,0c1.862,0 3.957,-0.093 6.285,-0.279c2.328,-0.187 4.47,-0.559 6.425,-1.118c5.587,-1.397 9.987,-3.864 13.2,-7.403c3.212,-3.538 5.494,-7.542 6.844,-12.012c1.35,-4.47 2.025,-8.846 2.025,-13.13c0,-4.283 -0.675,-8.683 -2.025,-13.199c-1.35,-4.516 -3.632,-8.544 -6.844,-12.082c-3.213,-3.539 -7.613,-6.006 -13.2,-7.403c-1.955,-0.559 -4.097,-0.908 -6.425,-1.047c-2.328,-0.14 -4.423,-0.21 -6.285,-0.21l-48.049,-0l-0,67.883Z" style="fill:#fff;fill-rule:nonzero;"/><path d="M740.458,301.4c-15.271,-0 -28.68,-3.306 -40.227,-9.917c-11.547,-6.612 -20.556,-15.784 -27.028,-27.517c-6.471,-11.732 -9.707,-25.235 -9.707,-40.506c-0,-16.482 3.166,-30.799 9.498,-42.951c6.332,-12.151 15.132,-21.58 26.399,-28.284c11.267,-6.705 24.304,-10.057 39.109,-10.057c15.644,0 28.937,3.655 39.878,10.965c10.942,7.309 19.066,17.622 24.374,30.938c5.308,13.316 7.31,29.006 6.006,47.071l-33.383,0l0,-12.291c-0.093,-16.389 -2.98,-28.355 -8.66,-35.897c-5.68,-7.543 -14.619,-11.314 -26.818,-11.314c-13.781,-0 -24.024,4.26 -30.729,12.78c-6.704,8.521 -10.056,20.975 -10.056,37.364c-0,15.271 3.352,27.097 10.056,35.478c6.705,8.381 16.482,12.571 29.332,12.571c8.288,-0 15.435,-1.839 21.441,-5.517c6.006,-3.679 10.639,-9.01 13.898,-15.993l33.243,10.056c-5.773,13.596 -14.69,24.164 -26.748,31.707c-12.059,7.543 -25.352,11.314 -39.878,11.314Zm-51.96,-70.258l0,-25.421l103.78,0l0,25.421l-103.78,0Z" style="fill:#fff;fill-rule:nonzero;"/><path d="M833.39,301.4l-0,-150.851l29.751,-0l-0,36.735l-3.632,-4.749c1.863,-5.029 4.354,-9.615 7.473,-13.758c3.119,-4.144 6.867,-7.566 11.244,-10.267c3.725,-2.514 7.845,-4.493 12.361,-5.936c4.517,-1.443 9.149,-2.328 13.898,-2.654c4.749,-0.326 9.359,-0.116 13.828,0.629l0,31.427c-4.469,-1.304 -9.614,-1.723 -15.434,-1.257c-5.82,0.466 -11.058,2.095 -15.714,4.889c-4.656,2.514 -8.45,5.726 -11.383,9.637c-2.934,3.911 -5.099,8.358 -6.495,13.339c-1.397,4.982 -2.096,10.36 -2.096,16.133l0,76.683l-33.801,-0Z" style="fill:#fff;fill-rule:nonzero;"/><rect x="1192.8" y="150.549" width="33.662" height="150.851" style="fill:#fff;fill-rule:nonzero;"/><g><path d="M930.026,298.959l55.089,-55.089c19.996,-19.996 52.465,-19.996 72.461,-0l54.224,54.224c-5.07,-3.1 -11.029,-4.887 -17.402,-4.887c-8.381,0 -16.046,3.091 -21.916,8.193l-36.218,-36.218c-8.234,-8.234 -21.603,-8.234 -29.837,-0l-35.997,35.997c-5.836,-4.97 -13.4,-7.972 -21.659,-7.972c-6.945,0 -13.397,2.122 -18.745,5.752Z" style="fill:#d4f53c;"/><path d="M1112.23,147.283l-55.089,55.089c-19.997,19.996 -52.465,19.996 -72.462,0l-54.223,-54.224c5.07,3.1 11.029,4.887 17.402,4.887c8.381,-0 16.045,-3.091 21.916,-8.193l36.218,36.218c8.233,8.234 21.603,8.234 29.836,-0l35.998,-35.997c5.836,4.97 13.4,7.972 21.659,7.972c6.944,-0 13.397,-2.122 18.745,-5.752Z" style="fill:#d4f53c;"/></g><circle cx="1209.63" cy="116.814" r="20.739" style="fill:#d4f53c;"/><rect x="1126.92" y="96.075" width="33.662" height="205.325" style="fill:#fff;fill-rule:nonzero;"/></g></g></svg>